<svg id="Ebene_1" data-name="Ebene 1" xmlns="http://www.w3.org/2000/svg" viewBox="0 0 530.97 335.85"><defs><style>.cls-1{fill:none;}</style></defs><path class="cls-1" d="M188.29,279.12h-5.52l-4.35,24.52H184c5.52,0,8.32-2.51,9.19-7.35l1.7-9.81C195.78,281.65,193.8,279.12,188.29,279.12Z" transform="translate(-33.46 -253.32)"/><path class="cls-1" d="M235.37,278.1c-4.76,0-7.89,2.24-8.65,6.54l-2.38,13.48c-.74,4.3,1.57,6.54,6.34,6.54s7.83-2.24,8.57-6.54l2.39-13.48C242.39,280.34,240.07,278.1,235.37,278.1Z" transform="translate(-33.46 -253.32)"/><path class="cls-1" d="M544.55,253.38h-282c-.4,0-.74-.06-1.16-.06H92.09c-21.74,0-28.68,6.94-31,27.76L46.76,418.47c-1.39,15.74,3.69,22.67,20.36,22.67h96.22c24,0,37,10.65,37,31.46,0,23.13-13,34.24-34.25,34.24-26.36,0-37.92-9.26-44.86-25.91-5.55-14.34-11.57-16.19-24.06-11.56l-49.5,18.49c-13.41,5.09-17.12,11.11-12,25,19.43,51.81,60.14,76.33,134.63,76.33,80,0,125.36-49,125.36-112.41,0-61.53-36.08-110.11-121.2-110.11h-31l3.22-32.33H322.42L430.74,565.12c6.95,14.34,12,17.12,36.56,17.12h50.88c14.34,0,15.27-7.4,9.71-19.43L421.49,334.33H544.55c14.8,0,19.89-5.09,19.89-19.89V272.81C564.44,258.47,559.35,253.38,544.55,253.38Zm-336.3,33.91-1.77,10.22c-2.11,11.78-10.5,18.05-24,18.05H165.75c-2.18,0-2.79-.75-2.38-2.86l7.48-42.64c.42-2.1,1.24-2.86,3.42-2.86h16.54C204.3,267.2,210.36,275.51,208.25,287.29Zm46.6-1.22-2.11,12.32c-2.11,11.72-10.49,18.19-24,18.19s-19.68-7.91-17.7-19.68l2.17-12.33c2-11.71,10.49-18.39,24-18.39S256.9,274.28,254.85,286.07Zm22.23,18.59c3.82,0,6.19-1.5,7.83-4.42,1.22-2.12,2.11-2.59,4-1.85l7.09,2.74c1.91.67,2.24,1.7,1.15,3.66-4.14,7.63-11.51,11.79-22,11.79-13.41,0-19.68-8-17.7-19.68l2.24-12.6c2.05-11.72,10.62-18.12,24-18.12,10.49,0,15.52,4.5,17,12.13.41,2-.13,3-2.31,3.67l-7,2.39c-2.18.68-2.94.27-3.4-1.85-.63-3-2.39-4.42-6.21-4.42-5.38,0-7.89,2.32-8.71,7.08l-2.25,12.4C270,302.35,271.7,304.66,277.08,304.66ZM312.87,308l-.48,2.79c-.76,4-2.26,5.31-6.27,5.31h-2.59c-4.08,0-5.17-1.29-4.5-5.31l.55-2.79c.68-4,2.25-5.38,6.27-5.38h2.58C312.52,302.62,313.61,304,312.87,308Z" transform="translate(-33.46 -253.32)"/></svg>